<svg width="1024" height="1024" viewBox="0 0 1024 1024" fill="none" xmlns="http://www.w3.org/2000/svg">
<path d="M770.543 1013.04C749.163 900.652 703.548 736.071 588.986 615.356C538.033 561.673 477.518 518.17 421.917 469.317C366.317 420.464 314.32 364.243 287.806 295.149C287.806 295.149 297.222 418.073 443.99 543.871C573.32 654.721 667.594 805.662 687.058 1023.15C617.235 1026.67 543.542 1019.19 486.51 1001.87C60.6348 872.45 -7.47588 447.632 257.834 0C275.064 85.7911 356.293 146.052 439.463 180.052C522.658 214.053 613.461 230.484 692.481 272.761C824.869 343.59 910.418 485.213 921.206 631.24C931.569 771.539 873.165 914.024 770.543 1013.04Z" fill="#22AA4F"/>
</svg>
